<svg viewBox="0 0 100 100" xml:space="preserve" xmlns="http://www.w3.org/2000/svg"><g fill="#000000" class="fill-e04a3f"><path d="M49.679 3.931c-25.35 0-45.974 20.624-45.974 45.974s20.624 45.974 45.974 45.974c25.351 0 45.975-20.624 45.975-45.974S75.029 3.931 49.679 3.931zm0 89.947c-24.247 0-43.974-19.727-43.974-43.974 0-24.247 19.727-43.974 43.974-43.974 24.248 0 43.975 19.727 43.975 43.974-.001 24.248-19.727 43.974-43.975 43.974z"></path><path d="M77.078 29.17h-5.444v-5.444a2 2 0 0 0-2-2h-3.721a2 2 0 0 0-2 2v5.444H58.47a2 2 0 0 0-2 2v3.722a2 2 0 0 0 2 2h5.443v5.444a2 2 0 0 0 2 2h3.721a2 2 0 0 0 2-2v-5.444h5.444a2 2 0 0 0 2-2V31.17a2 2 0 0 0-2-2zm0 5.722h-7.444v7.444h-3.721v-7.444H58.47V31.17h7.443v-7.444h3.721v7.444h7.444v3.722z"></path><path d="m51.731 53.442-.365-.272c-2.12-1.578-3.326-2.662-3.587-3.225.006-.844.119-1.283 2.472-3.12 3.622-2.832 5.536-6.359 5.536-10.201 0-2.707-.665-5.179-1.872-7.18.37-.089.711-.284.979-.564l3.564-3.741a1.999 1.999 0 0 0-1.402-3.422H40.915c-9.221 0-17.011 6.722-17.011 14.678 0 7.949 5.276 13.618 12.977 14.154a7.38 7.38 0 0 0-.086 1.123c0 .858.152 1.602.402 2.257-4.465.202-8.618 1.765-11.784 4.452-3.279 2.782-5.159 6.488-5.159 10.168 0 6.901 8.11 11.909 19.284 11.909 5.464 0 10.254-1.454 13.851-4.205 3.436-2.628 5.406-6.257 5.406-9.956 0-5.791-1.65-8.794-7.064-12.855zM39.538 78.457c-9.373 0-17.284-3.813-17.284-9.909 0-6.192 6.562-12.643 15.936-12.643 1.021 0 1.957-.026 2.928-.026-1.285-1.248-2.322-2.324-2.322-4.208 0-1.12.357-2.188.857-3.146-.51.037-1.029.064-1.564.064-7.698 0-12.184-5.409-12.184-12.196 0-6.64 6.824-12.678 15.011-12.678h16.136L53.445 27.5H49.21c2.989 1.712 4.577 5.238 4.577 9.124 0 3.567-1.976 6.442-4.767 8.625-2.724 2.126-3.241 3.017-3.241 4.828 0 1.543 3.256 3.843 4.752 4.966 5.21 3.909 6.264 6.366 6.264 11.254 0 6.097-6.571 12.16-17.257 12.16z"></path><path d="M44.514 58.485a14.034 14.034 0 0 0-4.199-.674l-.165-.001c-6.408 0-11.805 4.136-11.805 8.923 0 4.927 4.679 9.028 11.157 9.028 9.109 0 12.284-3.85 12.284-8.775a7.56 7.56 0 0 0-.206-1.741c-.713-2.788-3.549-4.316-7.066-6.76zm-5.012 15.276c-5.135 0-9.157-3.087-9.157-7.028 0-3.688 4.582-6.922 9.805-6.923l.143.001c1.159.012 2.278.178 3.335.492.426.293.84.574 1.242.845 2.526 1.708 4.352 2.942 4.773 4.592.092.393.144.824.144 1.245-.001 4.56-3.365 6.776-10.285 6.776zM41.426 46.127c4.211 0 6.617-3.647 5.881-9.261-.752-5.711-4.473-10.396-8.82-10.526a5.94 5.94 0 0 0-.188-.003c-4.243 0-7.064 4.326-6.325 9.957.751 5.708 4.883 9.699 9.233 9.83l.219.003zm-7.471-10.093c-.341-2.601.188-4.917 1.45-6.357.779-.889 1.753-1.339 2.893-1.339l.129.002c3.231.097 6.261 3.957 6.897 8.789.335 2.561-.064 4.638-1.127 5.849-.67.764-1.603 1.151-2.771 1.151l-.16-.002c-3.575-.109-6.717-3.588-7.311-8.093z"></path></g></svg>